<svg xmlns="http://www.w3.org/2000/svg" viewBox="0 0 64 64"><defs><linearGradient id="g" x2=".7" y2="1"><stop stop-color="#fff1c9"/><stop offset=".5" stop-color="#dcc38a"/><stop offset="1" stop-color="#8f713f"/></linearGradient></defs><g fill="none" stroke="#101b20" stroke-width="5" stroke-linecap="round" stroke-linejoin="round"><path d="M5 33s10-17 27-17 27 17 27 17-10 17-27 17S5 33 5 33Z"/><circle cx="32" cy="33" r="10"/><path d="m8 56 48-48M9 10l4 4M52 50l4 4"/><path d="M26 33a6 6 0 0 1 6-6"/></g><g fill="none" stroke="url(#g)" stroke-width="2.5" stroke-linecap="round" stroke-linejoin="round"><path d="M5 33s10-17 27-17 27 17 27 17-10 17-27 17S5 33 5 33Z"/><circle cx="32" cy="33" r="10"/><path d="m8 56 48-48M9 10l4 4M52 50l4 4"/><path d="M26 33a6 6 0 0 1 6-6"/></g></svg>