<svg xmlns="http://www.w3.org/2000/svg" viewBox="0 0 64 64"><defs><linearGradient id="g" x2=".7" y2="1"><stop stop-color="#fff1c9"/><stop offset=".5" stop-color="#dcc38a"/><stop offset="1" stop-color="#8f713f"/></linearGradient></defs><g fill="none" stroke="#101b20" stroke-width="5" stroke-linecap="round" stroke-linejoin="round"><path d="M19 7h26M19 57h26M22 7c0 14 3 18 10 25-7 7-10 11-10 25M42 7c0 14-3 18-10 25 7 7 10 11 10 25M24 14h16M25 50l7-10 7 10Z"/></g><g fill="none" stroke="url(#g)" stroke-width="2.5" stroke-linecap="round" stroke-linejoin="round"><path d="M19 7h26M19 57h26M22 7c0 14 3 18 10 25-7 7-10 11-10 25M42 7c0 14-3 18-10 25 7 7 10 11 10 25M24 14h16M25 50l7-10 7 10Z"/></g></svg>